<svg xmlns="http://www.w3.org/2000/svg" viewBox="0 0 980 540" role="img" aria-label="Blue sea-forged sword with a red tassel">
  <title>Brotherhood sword</title>
  <defs>
    <clipPath id="blade-highlight-bound">
      <path d="M365 155q106 49 258 137l292 196Q669 352 423 215q-50-28-68-47Z"/>
    </clipPath>
  </defs>
  <g stroke="#17242c" stroke-linejoin="round" stroke-linecap="round">
    <path d="M88 21 36 268 4 283 111 291 91 43Z" fill="#943116" stroke-width="5"/>
    <path d="M85 73Q68 165 54 269M91 92Q96 173 95 268" fill="none" stroke="#d26a24" stroke-width="4"/>
    <path d="M42 294 45 333 36 352 32 321ZM74 295 80 341 72 355 65 312Z" fill="#434743" stroke-width="3"/>
    <path d="M88 22 70 12 74 3 91 5 100 18Z" fill="#414d4a" stroke-width="4"/>
    <path d="M96 28 110 13 226 77 214 99Z" fill="#e9d479" stroke-width="7"/>
    <path d="m117 21 11 29 17-16 9 33 17-17 8 33 17-18 9 27" fill="none" stroke="#bba748" stroke-width="3"/>
    <path d="m214 81 27-17 15 23-22 23Z" fill="#273039" stroke-width="6"/>
    <path d="M241 95q21-32 54-28l9-54 17 45 28-26-10 53 35 30-34 9-20-17-37 24Z" fill="#404846" stroke-width="9"/>
    <path d="M277 72q12 28 38 28l27-18 46 53-11 20-43-35-21 11-46-17Z" fill="#12416b" stroke-width="8"/>
    <path d="M318 7q1 61 48 89l-6 21q-49-14-42-110Z" fill="#2e77ac" stroke-width="5"/>
    <path d="M368 100q34 16 68 52l-21 15-48-41Z" fill="#2eb2ce" stroke-width="6"/>
    <path d="M340 132q55-8 91 21 244 113 549 380Q820 510 610 423Q660 424 705 431L680 441 846 477C740 420 560 355 369 245q-68-34-105-77Z" fill="#0d5b70" stroke-width="6"/>
    <path d="M341 141q46-1 85 27 240 113 494 329-234-125-499-272-52-30-80-59Z" fill="#173b63" stroke="none"/>
    <path d="M365 155q106 49 258 137l292 196Q669 352 423 215q-50-28-68-47Z" fill="#537c98" stroke="none"/>
    <path d="M409 191C540 258 686 344 843 444" fill="none" stroke="#a8cad5" stroke-width="5" opacity=".8" clip-path="url(#blade-highlight-bound)"/>
    <path d="M266 105q21-10 34-2 16-21 31-12 19-14 41 4" fill="none" stroke="#9bc6dd" stroke-width="8"/>
    <circle cx="244" cy="100" r="9" fill="#b58a2b" stroke-width="4"/><circle cx="342" cy="107" r="9" fill="#b58a2b" stroke-width="4"/>
  </g>
</svg>
