<svg xmlns="http://www.w3.org/2000/svg" viewBox="670 595 160 215" width="160" height="215" role="img" aria-label="Snapped center silk strands">
<title>Snapped center silk strands</title>
<g id="web-frays">
<path d="M710.0 614.0 C718.0 605.0 738.2 629.0 742.0 624.0" fill="none" stroke="#f4f0e5" stroke-width="3.2" stroke-opacity="1" stroke-linecap="round" stroke-linejoin="round"/>
<path d="M790.0 614.0 C781.4 618.0 765.0 620.0 756.0 626.0" fill="none" stroke="#f4f0e5" stroke-width="2.8800000000000003" stroke-opacity="1" stroke-linecap="round" stroke-linejoin="round"/>
<path d="M742.0 624.0 q7 10 0 20 M756.0 626.0 q-7 8 -2 17" fill="none" stroke="#f4f0e5" stroke-width="0.85" stroke-opacity="1" stroke-linecap="round" stroke-linejoin="round"/>
<path d="M710.0 647.9 C716.2 644.9 732.0 670.9 735.0 665.9" fill="none" stroke="#f4f0e5" stroke-width="1.4" stroke-opacity="1" stroke-linecap="round" stroke-linejoin="round"/>
<path d="M790.0 647.9 C783.2 640.9 770.5 649.9 763.0 655.9" fill="none" stroke="#f4f0e5" stroke-width="1.26" stroke-opacity="1" stroke-linecap="round" stroke-linejoin="round"/>
<path d="M710.0 684.2 C717.2 673.2 735.5 687.2 739.0 682.2" fill="none" stroke="#f4f0e5" stroke-width="1.15" stroke-opacity="1" stroke-linecap="round" stroke-linejoin="round"/>
<path d="M790.0 684.2 C782.2 693.2 767.4 694.2 759.0 700.2" fill="none" stroke="#f4f0e5" stroke-width="1.035" stroke-opacity="1" stroke-linecap="round" stroke-linejoin="round"/>
<path d="M739.0 682.2 q8 -7 14 -4" fill="none" stroke="#f4f0e5" stroke-width="0.75" stroke-opacity="1" stroke-linecap="round" stroke-linejoin="round"/>
<path d="M710.0 735.0 C718.5 739.0 739.9 765.0 744.0 760.0" fill="none" stroke="#f4f0e5" stroke-width="1.4" stroke-opacity="1" stroke-linecap="round" stroke-linejoin="round"/>
<path d="M790.0 735.0 C780.8 732.0 763.5 749.0 754.0 755.0" fill="none" stroke="#f4f0e5" stroke-width="1.26" stroke-opacity="1" stroke-linecap="round" stroke-linejoin="round"/>
<path d="M744.0 760.0 C750 772 735 782 725 790 M754.0 755.0 C751 768 766 781 778 788" fill="none" stroke="#f4f0e5" stroke-width="1.05" stroke-opacity="1" stroke-linecap="round" stroke-linejoin="round"/>
</g>
</svg>
